<svg width="100" height="63" viewBox="0 0 100 63" fill="none" xmlns="http://www.w3.org/2000/svg">
<path d="M9.6859 50.0981C9.85257 50.4037 10.0424 50.7833 10.2554 51.237C10.4776 51.6815 10.7044 52.1676 10.9359 52.6953C11.1767 53.2139 11.4128 53.7463 11.6443 54.2926C11.8757 54.8389 12.0933 55.3528 12.297 55.8343C12.5007 55.3528 12.7183 54.8389 12.9498 54.2926C13.1813 53.7463 13.4128 53.2139 13.6443 52.6953C13.885 52.1676 14.1119 51.6815 14.3248 51.237C14.5471 50.7833 14.7415 50.4037 14.9082 50.0981H16.8804C16.973 50.737 17.0563 51.4546 17.1304 52.2509C17.2138 53.0379 17.2832 53.862 17.3388 54.7231C17.4036 55.575 17.4591 56.4315 17.5054 57.2926C17.561 58.1537 17.6073 58.9639 17.6443 59.7232H15.5332C15.5054 58.788 15.4684 57.7695 15.4221 56.6676C15.3758 55.5657 15.3063 54.4546 15.2137 53.3342C15.0471 53.7231 14.8619 54.1537 14.6582 54.6259C14.4545 55.0982 14.2508 55.5704 14.0471 56.0426C13.8526 56.5148 13.6628 56.9685 13.4776 57.4037C13.2924 57.8297 13.135 58.1954 13.0054 58.501H11.4915C11.3618 58.1954 11.2044 57.8297 11.0192 57.4037C10.8341 56.9685 10.6396 56.5148 10.4359 56.0426C10.2415 55.5704 10.0424 55.0982 9.83868 54.6259C9.63497 54.1537 9.44979 53.7231 9.28312 53.3342C9.19053 54.4546 9.12108 55.5657 9.07478 56.6676C9.02849 57.7695 8.99145 58.788 8.96367 59.7232H6.85254C6.88958 58.9639 6.93124 58.1537 6.97754 57.2926C7.0331 56.4315 7.08865 55.575 7.14421 54.7231C7.20902 53.862 7.27847 53.0379 7.35254 52.2509C7.43588 51.4546 7.52384 50.737 7.61644 50.0981H9.6859Z" fill="#0E2254"/>
<path d="M18.5535 56.1259C18.5535 55.4778 18.6507 54.913 18.8452 54.4315C19.0489 53.9407 19.3128 53.5333 19.6368 53.2092C19.9609 52.8852 20.3313 52.6398 20.748 52.4731C21.1739 52.3065 21.6091 52.2231 22.0535 52.2231C23.0906 52.2231 23.91 52.5426 24.5119 53.1815C25.1138 53.8111 25.4147 54.7417 25.4147 55.9732C25.4147 56.0935 25.41 56.2278 25.4008 56.3759C25.3915 56.5148 25.3823 56.6398 25.373 56.7509H20.6785C20.7248 57.1769 20.9239 57.5148 21.2757 57.7648C21.6276 58.0148 22.0998 58.1398 22.6924 58.1398C23.0721 58.1398 23.4424 58.1074 23.8036 58.0426C24.1739 57.9686 24.4749 57.8806 24.7063 57.7787L24.9841 59.4593C24.873 59.5149 24.7249 59.5704 24.5397 59.626C24.3545 59.6815 24.1461 59.7278 23.9147 59.7649C23.6924 59.8112 23.4517 59.8482 23.1924 59.876C22.9332 59.9038 22.6739 59.9176 22.4146 59.9176C21.7572 59.9176 21.1832 59.8204 20.6924 59.626C20.2109 59.4315 19.8081 59.1676 19.4841 58.8343C19.1692 58.4917 18.9331 58.0889 18.7757 57.626C18.6276 57.163 18.5535 56.663 18.5535 56.1259ZM23.4147 55.3343C23.4054 55.1583 23.373 54.987 23.3174 54.8204C23.2711 54.6537 23.1924 54.5056 23.0813 54.3759C22.9795 54.2463 22.8452 54.1398 22.6785 54.0565C22.5211 53.9731 22.3221 53.9315 22.0813 53.9315C21.8498 53.9315 21.6508 53.9731 21.4841 54.0565C21.3174 54.1305 21.1785 54.2324 21.0674 54.362C20.9563 54.4917 20.8683 54.6444 20.8035 54.8204C20.748 54.987 20.7063 55.1583 20.6785 55.3343H23.4147Z" fill="#0E2254"/>
<path d="M26.1089 56.1259C26.1089 55.4778 26.2061 54.913 26.4006 54.4315C26.6043 53.9407 26.8682 53.5333 27.1923 53.2092C27.5163 52.8852 27.8867 52.6398 28.3034 52.4731C28.7293 52.3065 29.1645 52.2231 29.6089 52.2231C30.646 52.2231 31.4654 52.5426 32.0673 53.1815C32.6692 53.8111 32.9701 54.7417 32.9701 55.9732C32.9701 56.0935 32.9655 56.2278 32.9562 56.3759C32.9469 56.5148 32.9377 56.6398 32.9284 56.7509H28.2339C28.2802 57.1769 28.4793 57.5148 28.8312 57.7648C29.183 58.0148 29.6552 58.1398 30.2478 58.1398C30.6275 58.1398 30.9978 58.1074 31.359 58.0426C31.7293 57.9686 32.0303 57.8806 32.2618 57.7787L32.5395 59.4593C32.4284 59.5149 32.2803 59.5704 32.0951 59.626C31.9099 59.6815 31.7016 59.7278 31.4701 59.7649C31.2479 59.8112 31.0071 59.8482 30.7478 59.876C30.4886 59.9038 30.2293 59.9176 29.9701 59.9176C29.3126 59.9176 28.7386 59.8204 28.2478 59.626C27.7663 59.4315 27.3636 59.1676 27.0395 58.8343C26.7247 58.4917 26.4885 58.0889 26.3311 57.626C26.183 57.163 26.1089 56.663 26.1089 56.1259ZM30.9701 55.3343C30.9608 55.1583 30.9284 54.987 30.8728 54.8204C30.8266 54.6537 30.7478 54.5056 30.6367 54.3759C30.5349 54.2463 30.4006 54.1398 30.234 54.0565C30.0765 53.9731 29.8775 53.9315 29.6367 53.9315C29.4052 53.9315 29.2062 53.9731 29.0395 54.0565C28.8728 54.1305 28.7339 54.2324 28.6228 54.362C28.5117 54.4917 28.4237 54.6444 28.3589 54.8204C28.3034 54.987 28.2617 55.1583 28.2339 55.3343H30.9701Z" fill="#0E2254"/>
<path d="M38.4144 54.2509C38.2292 54.2046 38.0116 54.1583 37.7616 54.112C37.5116 54.0565 37.2431 54.0287 36.956 54.0287C36.8264 54.0287 36.669 54.0426 36.4838 54.0704C36.3079 54.0889 36.1736 54.112 36.081 54.1398V59.7232H34.0116V52.8065C34.3819 52.6768 34.8171 52.5565 35.3171 52.4453C35.8264 52.325 36.3912 52.2648 37.0116 52.2648C37.1227 52.2648 37.257 52.274 37.4144 52.2926C37.5718 52.3018 37.7292 52.3203 37.8866 52.3481C38.044 52.3666 38.2014 52.3944 38.3588 52.4315C38.5162 52.4592 38.6505 52.4963 38.7616 52.5426L38.4144 54.2509Z" fill="#0E2254"/>
<path d="M40.9437 55.8343C40.9437 56.9917 41.4113 57.5704 42.3465 57.5704C42.5595 57.5704 42.7585 57.5426 42.9437 57.4871C43.1289 57.4315 43.2863 57.3667 43.4159 57.2926V53.987C43.3141 53.9685 43.1937 53.9546 43.0548 53.9454C42.9159 53.9268 42.7539 53.9176 42.5687 53.9176C42.0224 53.9176 41.615 54.0981 41.3465 54.4593C41.078 54.8204 40.9437 55.2787 40.9437 55.8343ZM45.4854 58.8065C45.4854 60.001 45.1798 60.8852 44.5687 61.4593C43.9669 62.0427 43.0317 62.3343 41.7631 62.3343C41.3187 62.3343 40.8742 62.2927 40.4298 62.2093C39.9853 62.1353 39.5733 62.0334 39.1937 61.9038L39.5548 60.1676C39.8789 60.2973 40.2168 60.3991 40.5687 60.4732C40.9298 60.5473 41.3372 60.5843 41.7909 60.5843C42.3835 60.5843 42.8002 60.4547 43.0409 60.1954C43.2909 59.9362 43.4159 59.6028 43.4159 59.1954V58.9315C43.1937 59.0334 42.9622 59.1121 42.7215 59.1676C42.49 59.2139 42.2354 59.2371 41.9576 59.2371C40.9483 59.2371 40.1752 58.9408 39.6381 58.3482C39.1011 57.7463 38.8326 56.9084 38.8326 55.8343C38.8326 55.2972 38.9159 54.8111 39.0826 54.3759C39.2492 53.9315 39.49 53.5518 39.8048 53.237C40.1289 52.9222 40.5224 52.6815 40.9854 52.5148C41.4483 52.3389 41.9715 52.2509 42.5548 52.2509C42.8048 52.2509 43.0595 52.2648 43.3187 52.2926C43.5872 52.3111 43.8511 52.3389 44.1104 52.3759C44.3697 52.4129 44.615 52.4592 44.8465 52.5148C45.0872 52.5611 45.3002 52.612 45.4854 52.6676V58.8065Z" fill="#0E2254"/>
<path d="M46.5236 56.1259C46.5236 55.4778 46.6208 54.913 46.8153 54.4315C47.019 53.9407 47.2829 53.5333 47.607 53.2092C47.931 52.8852 48.3014 52.6398 48.7181 52.4731C49.144 52.3065 49.5792 52.2231 50.0236 52.2231C51.0607 52.2231 51.8801 52.5426 52.482 53.1815C53.0839 53.8111 53.3848 54.7417 53.3848 55.9732C53.3848 56.0935 53.3802 56.2278 53.3709 56.3759C53.3616 56.5148 53.3524 56.6398 53.3431 56.7509H48.6486C48.6949 57.1769 48.894 57.5148 49.2459 57.7648C49.5977 58.0148 50.0699 58.1398 50.6625 58.1398C51.0422 58.1398 51.4125 58.1074 51.7737 58.0426C52.144 57.9686 52.445 57.8806 52.6764 57.7787L52.9542 59.4593C52.8431 59.5149 52.695 59.5704 52.5098 59.626C52.3246 59.6815 52.1163 59.7278 51.8848 59.7649C51.6625 59.8112 51.4218 59.8482 51.1625 59.876C50.9033 59.9038 50.644 59.9176 50.3848 59.9176C49.7273 59.9176 49.1533 59.8204 48.6625 59.626C48.181 59.4315 47.7783 59.1676 47.4542 58.8343C47.1394 58.4917 46.9032 58.0889 46.7458 57.626C46.5977 57.163 46.5236 56.663 46.5236 56.1259ZM51.3848 55.3343C51.3755 55.1583 51.3431 54.987 51.2875 54.8204C51.2413 54.6537 51.1625 54.5056 51.0514 54.3759C50.9496 54.2463 50.8153 54.1398 50.6487 54.0565C50.4912 53.9731 50.2922 53.9315 50.0514 53.9315C49.8199 53.9315 49.6209 53.9731 49.4542 54.0565C49.2875 54.1305 49.1486 54.2324 49.0375 54.362C48.9264 54.4917 48.8385 54.6444 48.7736 54.8204C48.7181 54.987 48.6764 55.1583 48.6486 55.3343H51.3848Z" fill="#0E2254"/>
<path d="M63.7907 59.7232C63.6889 59.3899 63.5731 59.0473 63.4435 58.6954C63.3231 58.3436 63.2027 57.9917 63.0824 57.6398H59.3323C59.212 57.9917 59.087 58.3436 58.9573 58.6954C58.837 59.0473 58.7258 59.3899 58.624 59.7232H56.374C56.7351 58.6862 57.0777 57.7278 57.4018 56.8482C57.7258 55.9685 58.0407 55.1398 58.3462 54.362C58.661 53.5842 58.9666 52.8481 59.2629 52.1537C59.5684 51.45 59.8833 50.7648 60.2073 50.0981H62.2768C62.5916 50.7648 62.9018 51.45 63.2074 52.1537C63.5129 52.8481 63.8185 53.5842 64.124 54.362C64.4389 55.1398 64.7583 55.9685 65.0824 56.8482C65.4065 57.7278 65.7491 58.6862 66.1102 59.7232H63.7907ZM61.1935 52.2787C61.1472 52.4176 61.0777 52.6074 60.9851 52.8481C60.8925 53.0889 60.786 53.3667 60.6657 53.6815C60.5453 53.9963 60.411 54.3435 60.2629 54.7231C60.124 55.1028 59.9805 55.5009 59.8323 55.9176H62.5685C62.4203 55.5009 62.2768 55.1028 62.1379 54.7231C61.999 54.3435 61.8648 53.9963 61.7351 53.6815C61.6148 53.3667 61.5083 53.0889 61.4157 52.8481C61.3231 52.6074 61.249 52.4176 61.1935 52.2787Z" fill="#FF4101"/>
<path d="M69.8283 48.9453C70.2172 48.9453 70.5737 48.987 70.8978 49.0703C71.2218 49.1444 71.4718 49.2185 71.6478 49.2925L71.245 50.9453C71.0598 50.862 70.8561 50.8018 70.6339 50.7648C70.4209 50.7185 70.2218 50.6953 70.0366 50.6953C69.7866 50.6953 69.5737 50.7324 69.3978 50.8064C69.2311 50.8713 69.0968 50.9639 68.995 51.0842C68.9024 51.2046 68.8329 51.3481 68.7866 51.5148C68.7496 51.6815 68.7311 51.862 68.7311 52.0565V52.4176H71.2867V54.1398H68.7311V59.7232H66.6616V52.0287C66.6616 51.0842 66.9255 50.3342 67.4533 49.7787C67.9903 49.2231 68.782 48.9453 69.8283 48.9453Z" fill="#FF4101"/>
<path d="M76.3683 54.2509C76.1831 54.2046 75.9655 54.1583 75.7155 54.112C75.4655 54.0565 75.197 54.0287 74.91 54.0287C74.7803 54.0287 74.6229 54.0426 74.4377 54.0704C74.2618 54.0889 74.1275 54.112 74.035 54.1398V59.7232H71.9655V52.8065C72.3359 52.6768 72.771 52.5565 73.271 52.4453C73.7803 52.325 74.3451 52.2648 74.9655 52.2648C75.0766 52.2648 75.2109 52.274 75.3683 52.2926C75.5257 52.3018 75.6831 52.3203 75.8405 52.3481C75.9979 52.3666 76.1553 52.3944 76.3128 52.4315C76.4702 52.4592 76.6044 52.4963 76.7155 52.5426L76.3683 54.2509Z" fill="#FF4101"/>
<path d="M79.3388 59.7232H77.2694V52.4176H79.3388V59.7232ZM79.5333 50.3064C79.5333 50.6861 79.4083 50.987 79.1583 51.2092C78.9175 51.4222 78.6305 51.5287 78.2971 51.5287C77.9638 51.5287 77.6721 51.4222 77.4221 51.2092C77.1814 50.987 77.061 50.6861 77.061 50.3064C77.061 49.9268 77.1814 49.6305 77.4221 49.4175C77.6721 49.1953 77.9638 49.0842 78.2971 49.0842C78.6305 49.0842 78.9175 49.1953 79.1583 49.4175C79.4083 49.6305 79.5333 49.9268 79.5333 50.3064Z" fill="#FF4101"/>
<path d="M80.3814 56.0704C80.3814 55.5426 80.4647 55.0472 80.6314 54.5843C80.8073 54.112 81.0573 53.7046 81.3814 53.362C81.7055 53.0102 82.099 52.7324 82.5619 52.5287C83.0249 52.325 83.5527 52.2231 84.1453 52.2231C84.5342 52.2231 84.8907 52.2602 85.2148 52.3342C85.5388 52.3991 85.8536 52.4963 86.1592 52.6259L85.7286 54.2787C85.5342 54.2046 85.3212 54.1398 85.0897 54.0843C84.8583 54.0287 84.599 54.0009 84.312 54.0009C83.7008 54.0009 83.2425 54.1907 82.937 54.5704C82.6406 54.95 82.4925 55.45 82.4925 56.0704C82.4925 56.7278 82.6314 57.2371 82.9092 57.5982C83.1962 57.9593 83.6916 58.1398 84.3953 58.1398C84.6453 58.1398 84.9138 58.1167 85.2009 58.0704C85.4879 58.0241 85.7518 57.95 85.9925 57.8482L86.2842 59.5426C86.0435 59.6445 85.7425 59.7325 85.3814 59.8065C85.0203 59.8806 84.6221 59.9176 84.187 59.9176C83.5203 59.9176 82.9462 59.8204 82.4647 59.626C81.9832 59.4223 81.5851 59.1491 81.2703 58.8065C80.9647 58.4639 80.7378 58.0611 80.5897 57.5982C80.4508 57.1259 80.3814 56.6167 80.3814 56.0704Z" fill="#FF4101"/>
<path d="M89.5566 58.2787C89.7603 58.2787 89.9547 58.2741 90.1399 58.2649C90.3251 58.2556 90.4733 58.2417 90.5844 58.2232V56.6537C90.501 56.6352 90.376 56.6167 90.2094 56.5982C90.0427 56.5796 89.8899 56.5704 89.751 56.5704C89.5566 56.5704 89.3714 56.5843 89.1955 56.6121C89.0288 56.6306 88.8807 56.6722 88.751 56.7371C88.6214 56.8019 88.5195 56.8898 88.4455 57.0009C88.3714 57.1121 88.3344 57.251 88.3344 57.4176C88.3344 57.7417 88.4408 57.9686 88.6538 58.0982C88.876 58.2186 89.177 58.2787 89.5566 58.2787ZM89.3899 52.2231C90.001 52.2231 90.5103 52.2926 90.9177 52.4315C91.3251 52.5703 91.6492 52.7694 91.8899 53.0287C92.1399 53.2879 92.3159 53.6028 92.4177 53.9731C92.5196 54.3435 92.5705 54.7556 92.5705 55.2093V59.5149C92.2742 59.5797 91.8622 59.6538 91.3344 59.7371C90.8066 59.8297 90.1677 59.876 89.4177 59.876C88.9455 59.876 88.5149 59.8343 88.126 59.751C87.7464 59.6676 87.4177 59.5334 87.1399 59.3482C86.8621 59.1537 86.6491 58.9037 86.501 58.5982C86.3529 58.2926 86.2788 57.9176 86.2788 57.4732C86.2788 57.0472 86.3621 56.6861 86.5288 56.3898C86.7047 56.0935 86.9362 55.8574 87.2232 55.6815C87.5103 55.5056 87.839 55.3806 88.2094 55.3065C88.5797 55.2232 88.964 55.1815 89.3621 55.1815C89.6307 55.1815 89.8668 55.1954 90.0705 55.2232C90.2834 55.2417 90.4548 55.2694 90.5844 55.3065V55.112C90.5844 54.7602 90.4779 54.4778 90.2649 54.2648C90.052 54.0518 89.6816 53.9454 89.1538 53.9454C88.802 53.9454 88.4547 53.9731 88.1121 54.0287C87.7695 54.075 87.4732 54.1444 87.2232 54.237L86.9593 52.5703C87.0797 52.5333 87.2279 52.4963 87.4038 52.4592C87.589 52.4129 87.788 52.3759 88.001 52.3481C88.214 52.3111 88.4362 52.2833 88.6677 52.2648C88.9084 52.237 89.1492 52.2231 89.3899 52.2231Z" fill="#FF4101"/>
<path fill-rule="evenodd" clip-rule="evenodd" d="M31.0307 32.9516C31.4529 32.7915 33.9299 31.3751 34.3536 31.1312C37.5399 29.297 40.7523 27.2085 43.6808 25.01C45.6524 23.53 47.6538 22.1316 49.654 20.6847C52.3824 18.7109 55.2104 16.7904 57.992 14.8686C60.203 13.3411 62.8447 11.7269 65.2992 10.6114C69.2028 8.83718 73.4311 7.51708 77.9407 8.01227C80.1216 8.25176 81.9496 8.90902 83.733 9.9351C84.5791 10.4218 85.8944 11.4408 86.584 12.2328C86.7931 12.4729 86.9724 12.6557 87.1902 12.9212C87.3828 13.1559 87.5512 13.3805 87.7435 13.634C89.2563 15.6291 90.3408 18.4021 90.7014 20.975C90.9213 22.5443 90.9933 24.2083 90.7828 25.7995C90.3172 29.3187 88.9572 32.3908 86.6871 34.5874L86.0116 35.206C85.8126 35.3925 85.5386 35.5774 85.3 35.761C84.3165 36.5181 83.1228 37.1033 81.917 37.4997C76.3431 39.3323 69.3495 38.3124 63.9149 36.8431C61.273 36.1288 58.7054 35.151 56.3929 34.0671C55.2375 33.5254 54.1145 32.9208 53.0093 32.301C52.449 31.9868 51.9463 31.6626 51.4246 31.3252L49.9067 30.2907C49.7905 30.3553 48.6031 31.4431 48.4165 31.6311L48.0432 31.9612C47.6624 32.2679 47.303 32.6396 46.9218 32.9495L45.3793 34.2495C44.8963 34.6814 44.3253 35.0953 43.8165 35.5006C42.1487 36.8289 40.6374 37.8382 38.8433 38.9968C38.5618 39.1786 38.2493 39.3556 37.9646 39.5252C37.7455 39.6558 37.2427 39.9027 37.0827 40.0432C37.6593 40.0155 40.2677 39.2603 40.8268 39.0956C43.8806 38.1958 47.4059 36.6187 49.8753 34.6092C49.9772 34.5263 50.0879 34.4183 50.1897 34.3603C50.3158 34.4207 50.5261 34.6101 50.658 34.7085C52.6383 36.186 53.6796 36.9174 55.881 38.2373C56.5234 38.6225 57.2347 39.0237 57.9319 39.3656C58.6406 39.7132 59.343 40.0858 60.0688 40.409C61.5714 41.0783 63.0594 41.6831 64.6317 42.2049C72.3063 44.7525 81.2191 45.2041 88.5457 41.4266C90.4661 40.4365 91.4986 39.6548 93.0429 38.3257C93.405 38.014 93.6665 37.7107 94.0477 37.3617C94.3257 37.1071 94.5613 36.8061 94.8146 36.5247C96.9716 34.1292 98.8055 30.7491 99.5555 26.9691C100.34 23.0173 100.055 19.3991 98.9432 15.7448C98.1159 13.0261 96.5553 10.1725 94.6935 8.06334C94.2558 7.56748 93.8118 7.06884 93.3242 6.61772C93.2525 6.55136 93.2046 6.48476 93.1324 6.41638C92.4528 5.7733 91.7176 5.16778 90.9368 4.64389C89.5325 3.70181 88.3767 3.08025 86.7654 2.45557C83.5392 1.20486 79.4184 0.763793 75.6259 1.21137C69.3544 1.95153 64.6437 4.22156 59.8029 7.64717C59.1897 8.08107 58.594 8.56275 57.9891 9.01311C57.3705 9.4736 56.8173 9.96093 56.2168 10.4488L55.5602 11.0013C54.8004 11.6754 52.9383 13.2543 52.4117 13.8188L50.3774 15.7521C49.5574 16.5191 48.7723 17.3185 47.9678 18.0978C47.714 18.3436 47.4348 18.6373 47.1668 18.9007C46.8953 19.1677 46.6436 19.4144 46.3727 19.6824C46.097 19.9551 45.8403 20.2052 45.564 20.4777L43.9631 22.0564C43.7019 22.3103 43.4025 22.5605 43.1674 22.8367C42.9845 23.0514 41.8994 24.0706 41.5529 24.4014L39.9042 25.933C39.5268 26.3378 39.0769 26.6934 38.653 27.0738C38.0946 27.575 37.5445 28.0833 36.9565 28.5565L35.2047 29.9845C34.4685 30.5706 33.7131 31.1426 32.9359 31.6828C32.6199 31.9024 32.3097 32.1071 31.9812 32.3321C31.6788 32.5392 31.3065 32.7376 31.0303 32.9515L31.0307 32.9516Z" fill="#FF4101"/>
<path fill-rule="evenodd" clip-rule="evenodd" d="M69.0337 11.2431C68.6609 11.3954 67.7737 11.907 67.3823 12.1274C65.7455 13.0493 64.0937 13.9725 62.5414 15.0254C61.5127 15.7231 60.4899 16.3949 59.4885 17.1215C58.9824 17.4888 58.4874 17.8406 57.99 18.2117C57.4788 18.5932 56.997 18.9324 56.502 19.3123C55.5295 20.0586 54.5034 20.7443 53.531 21.4909C53.2888 21.6769 53.041 21.8343 52.7933 22.0195C51.0604 23.3155 49.2489 24.4851 47.4769 25.7353C46.9772 26.0878 46.4462 26.4188 45.929 26.7765C45.4191 27.1292 44.9011 27.4654 44.376 27.8126C39.9129 30.763 36.1323 33.1983 30.8466 34.9069C24.7707 36.8708 18.7625 36.4883 14.381 33.086C13.5293 32.4246 12.7729 31.6829 12.1165 30.8483C10.7697 29.1361 9.93558 27.3949 9.31749 25.2902C9.11869 24.6133 8.98615 23.874 8.87962 23.137C8.63963 21.4763 8.70007 19.97 8.90748 18.3203C9.25983 15.5169 10.6143 12.7785 11.982 11.0914C13.4097 9.3304 15.3147 7.74574 17.9755 6.75874C23.3136 4.77868 30.6069 5.75976 35.919 7.24312C37.2484 7.61438 38.5671 8.02448 39.811 8.50042C41.208 9.03494 42.0943 9.42765 43.4386 10.0219C45.3924 10.8858 47.44 12.1044 49.202 13.2916C49.4642 13.4683 49.7046 13.6544 49.968 13.8234C50.0964 13.7552 50.2316 13.6019 50.3484 13.497L51.8249 12.1598C52.6947 11.3777 53.5676 10.6307 54.4779 9.88797L56.8316 8.02093C58.3524 6.86258 60.2217 5.54146 61.8713 4.61871C62.0615 4.51234 62.6592 4.2 62.7764 4.07988C62.0666 4.14977 59.6965 4.82578 59.0444 5.0277C56.1711 5.91754 53.5066 7.078 51.0288 8.74607C50.7968 8.90224 50.5565 9.07495 50.3442 9.24337C50.1415 9.40435 49.8857 9.62838 49.6867 9.75948L47.8687 8.40612C46.4654 7.40723 45.4497 6.77579 44.0162 5.8993C43.368 5.50305 42.6657 5.13905 41.9631 4.77251C39.1458 3.30249 36.1606 2.11771 32.7968 1.2191C25.3529 -0.769491 17.6694 -0.39038 11.3819 2.83769C10.0141 3.53995 8.69483 4.36327 7.5618 5.3766L6.72017 6.11119C6.59448 6.21916 6.43814 6.3928 6.32266 6.50127C6.17459 6.64039 6.0575 6.76583 5.91661 6.91145C3.16043 9.75906 1.24418 13.2958 0.425091 17.3169C-0.328914 21.0187 -0.0579388 25.164 1.06404 28.5355C2.21227 31.9858 3.75573 34.4597 5.70718 36.6399C6.14082 37.1243 6.6263 37.5692 7.0835 38.0201C7.57117 38.5009 8.52026 39.2289 9.09134 39.6142C10.3683 40.4757 11.7635 41.2668 13.2776 41.7877C17.1288 43.1127 20.3303 43.3865 24.4462 43C27.7894 42.6861 31.3732 41.5713 34.3075 40.1419C35.9242 39.3543 36.7375 38.7466 38.208 37.6833C39.1065 37.0335 40.0699 36.3232 40.9198 35.6114L42.6696 34.1822C43.688 33.3294 44.6677 32.4868 45.6507 31.5915L46.9173 30.4656C47.1872 30.2131 47.4806 29.9686 47.7311 29.7045C47.8541 29.5747 47.9897 29.4661 48.1391 29.3245L48.5616 28.9312C49.1142 28.4479 49.6758 27.889 50.2077 27.3971C50.7548 26.8913 51.2829 26.3491 51.8371 25.8468C52.3885 25.3471 52.9124 24.8031 53.4624 24.2927C54.5605 23.2737 55.6194 22.2061 56.7268 21.1976L61.7444 16.676C62.831 15.7065 64.9281 14.0478 66.1697 13.1664C66.4807 12.9454 68.7525 11.3533 69.034 11.2434L69.0337 11.2431Z" fill="#0E2254"/>
</svg>
