<svg width="16" height="15" viewBox="0 0 16 15" fill="none" xmlns="http://www.w3.org/2000/svg">
<path d="M13.1154 1H2.88462C2.38522 1.00144 1.90669 1.20357 1.55356 1.56221C1.20043 1.92085 1.00142 2.40687 1 2.91406V9.47656C1.00142 9.98376 1.20043 10.4698 1.55356 10.8284C1.90669 11.1871 2.38522 11.3892 2.88462 11.3906H4.23077V14.125L7.38481 11.4542C7.43324 11.4131 7.49435 11.3906 7.55745 11.3906H13.1154C13.6148 11.3892 14.0933 11.1871 14.4464 10.8284C14.7996 10.4698 14.9986 9.98376 15 9.47656V2.91406C14.9986 2.40687 14.7996 1.92085 14.4464 1.56221C14.0933 1.20357 13.6148 1.00144 13.1154 1Z" stroke="white" stroke-linejoin="round"/>
</svg>
