<svg width="36" height="33" viewBox="0 0 36 33" fill="none" xmlns="http://www.w3.org/2000/svg">
  <path
    d="M32.8708 23.4785H3.13162C2.7165 23.4785 2.31838 23.6434 2.02485 23.937C1.73131 24.2305 1.56641 24.6286 1.56641 25.0437V31.3046C1.56641 31.7197 1.73131 32.1178 2.02485 32.4114C2.31838 32.7049 2.7165 32.8698 3.13162 32.8698H32.8708C33.2859 32.8698 33.684 32.7049 33.9775 32.4114C34.2711 32.1178 34.436 31.7197 34.436 31.3046V25.0437C34.436 24.6286 34.2711 24.2305 33.9775 23.937C33.684 23.6434 33.2859 23.4785 32.8708 23.4785Z"
    fill="#444444" />
  <path
    d="M24.2614 6.26087C24.1586 6.26087 24.0568 6.24063 23.9619 6.2013C23.8669 6.16197 23.7807 6.10432 23.708 6.03165C23.6353 5.95898 23.5777 5.8727 23.5383 5.77775C23.499 5.6828 23.4788 5.58103 23.4788 5.47826V1.56522H12.5222V5.47826C12.5222 5.58103 12.502 5.6828 12.4627 5.77775C12.4233 5.8727 12.3657 5.95898 12.293 6.03165C12.2204 6.10432 12.1341 6.16197 12.0391 6.2013C11.9442 6.24063 11.8424 6.26087 11.7396 6.26087C11.6369 6.26087 11.5351 6.24063 11.4401 6.2013C11.3452 6.16197 11.2589 6.10432 11.1863 6.03165C11.1136 5.95898 11.0559 5.8727 11.0166 5.77775C10.9773 5.6828 10.957 5.58103 10.957 5.47826V0.782609C10.957 0.575048 11.0395 0.375988 11.1863 0.229221C11.333 0.0824533 11.5321 0 11.7396 0H24.2614C24.4689 0 24.668 0.0824533 24.8148 0.229221C24.9615 0.375988 25.044 0.575048 25.044 0.782609V5.47826C25.044 5.58103 25.0237 5.6828 24.9844 5.77775C24.9451 5.8727 24.8874 5.95898 24.8148 6.03165C24.7421 6.10432 24.6558 6.16197 24.5609 6.2013C24.4659 6.24063 24.3642 6.26087 24.2614 6.26087Z"
    fill="#B3B3B3" />
  <path
    d="M34.4348 4.69531H1.56522C1.1501 4.69531 0.751977 4.86022 0.458442 5.15375C0.164906 5.44729 0 5.84541 0 6.26053V23.4779C0 23.893 0.164906 24.2912 0.458442 24.5847C0.751977 24.8782 1.1501 25.0431 1.56522 25.0431H34.4348C34.8499 25.0431 35.248 24.8782 35.5416 24.5847C35.8351 24.2912 36 23.893 36 23.4779V6.26053C36 5.84541 35.8351 5.44729 35.5416 5.15375C35.248 4.86022 34.8499 4.69531 34.4348 4.69531Z"
    fill="#636363" />
  <path
    d="M21.1294 28.174H14.8685C14.7658 28.174 14.664 28.1537 14.5691 28.1144C14.4741 28.0751 14.3878 28.0174 14.3152 27.9447C14.2425 27.8721 14.1848 27.7858 14.1455 27.6908C14.1062 27.5959 14.0859 27.4941 14.0859 27.3913V22.6957C14.0859 22.5929 14.1062 22.4912 14.1455 22.3962C14.1848 22.3013 14.2425 22.215 14.3152 22.1423C14.3878 22.0696 14.4741 22.012 14.5691 21.9727C14.664 21.9333 14.7658 21.9131 14.8685 21.9131H21.1294C21.2322 21.9131 21.334 21.9333 21.4289 21.9727C21.5239 22.012 21.6101 22.0696 21.6828 22.1423C21.7555 22.215 21.8131 22.3013 21.8525 22.3962C21.8918 22.4912 21.912 22.5929 21.912 22.6957V27.3913C21.912 27.4941 21.8918 27.5959 21.8525 27.6908C21.8131 27.7858 21.7555 27.8721 21.6828 27.9447C21.6101 28.0174 21.5239 28.0751 21.4289 28.1144C21.334 28.1537 21.2322 28.174 21.1294 28.174Z"
    fill="#EFD358" />
</svg>