<svg width="26" height="26" viewBox="0 0 26 26" fill="none" xmlns="http://www.w3.org/2000/svg">
  <path
    d="M11.4375 6.75V8.3125H6.75V6.75H11.4375ZM6.75 11.4375V9.875H11.4375V11.4375H6.75ZM6.75 14.5625V13H9.875V14.5625H6.75ZM5.1875 6.75V8.3125H3.625V6.75H5.1875ZM5.1875 9.875V11.4375H3.625V9.875H5.1875ZM3.625 14.5625V13H5.1875V14.5625H3.625ZM2.0625 2.0625V23.9375H9.875V25.5H0.5V0.5H14.1108L20.8125 7.20166V9.875H19.25V8.3125H13V2.0625H2.0625ZM14.5625 3.17334V6.75H18.1392L14.5625 3.17334ZM22.375 13H25.5V25.5H11.4375V13H14.5625V11.4375H16.125V13H20.8125V11.4375H22.375V13ZM23.9375 23.9375V17.6875H13V23.9375H23.9375ZM23.9375 16.125V14.5625H13V16.125H23.9375Z"
    fill="#0E2254" fill-opacity="0.8" />
</svg>