<svg width="26" height="26" viewBox="0 0 26 26" fill="none" xmlns="http://www.w3.org/2000/svg">
  <path
    d="M20.293 7.27018C18.5742 7.27018 17.168 6.80143 17.168 6.22852V7.27018C17.168 7.8431 18.5742 8.31185 20.293 8.31185C22.0117 8.31185 23.418 7.8431 23.418 7.27018V6.22852C23.418 6.80143 22.0117 7.27018 20.293 7.27018Z"
    fill="#FFA000" />
  <path
    d="M20.293 5.70768C18.5742 5.70768 17.168 5.23893 17.168 4.66602V5.70768C17.168 6.2806 18.5742 6.74935 20.293 6.74935C22.0117 6.74935 23.418 6.2806 23.418 5.70768V4.66602C23.418 5.23893 22.0117 5.70768 20.293 5.70768ZM20.293 8.83268C18.5742 8.83268 17.168 8.36393 17.168 7.79102V8.83268C17.168 9.4056 18.5742 9.87435 20.293 9.87435C22.0117 9.87435 23.418 9.4056 23.418 8.83268V7.79102C23.418 8.36393 22.0117 8.83268 20.293 8.83268Z"
    fill="#FFA000" />
  <path
    d="M20.293 10.3952C18.5742 10.3952 17.168 9.92643 17.168 9.35352V10.3952C17.168 10.9681 18.5742 11.4368 20.293 11.4368C22.0117 11.4368 23.418 10.9681 23.418 10.3952V9.35352C23.418 9.92643 22.0117 10.3952 20.293 10.3952Z"
    fill="#FFA000" />
  <path
    d="M20.293 11.9577C18.5742 11.9577 17.168 11.4889 17.168 10.916V11.9577C17.168 12.5306 18.5742 12.9993 20.293 12.9993C22.0117 12.9993 23.418 12.5306 23.418 11.9577V10.916C23.418 11.4889 22.0117 11.9577 20.293 11.9577Z"
    fill="#FFA000" />
  <path
    d="M20.293 13.5202C18.5742 13.5202 17.168 13.0514 17.168 12.4785V13.5202C17.168 14.0931 18.5742 14.5618 20.293 14.5618C22.0117 14.5618 23.418 14.0931 23.418 13.5202V12.4785C23.418 13.0514 22.0117 13.5202 20.293 13.5202Z"
    fill="#FFA000" />
  <path
    d="M20.293 15.0827C18.5742 15.0827 17.168 14.6139 17.168 14.041V15.0827C17.168 15.6556 18.5742 16.1243 20.293 16.1243C22.0117 16.1243 23.418 15.6556 23.418 15.0827V14.041C23.418 14.6139 22.0117 15.0827 20.293 15.0827Z"
    fill="#FFA000" />
  <path
    d="M20.293 16.6452C18.5742 16.6452 17.168 16.1764 17.168 15.6035V16.6452C17.168 17.2181 18.5742 17.6868 20.293 17.6868C22.0117 17.6868 23.418 17.2181 23.418 16.6452V15.6035C23.418 16.1764 22.0117 16.6452 20.293 16.6452Z"
    fill="#FFA000" />
  <path
    d="M20.293 18.2077C18.5742 18.2077 17.168 17.7389 17.168 17.166V18.2077C17.168 18.7806 18.5742 19.2493 20.293 19.2493C22.0117 19.2493 23.418 18.7806 23.418 18.2077V17.166C23.418 17.7389 22.0117 18.2077 20.293 18.2077Z"
    fill="#FFA000" />
  <path
    d="M20.293 19.7702C18.5742 19.7702 17.168 19.3014 17.168 18.7285V19.7702C17.168 20.3431 18.5742 20.8118 20.293 20.8118C22.0117 20.8118 23.418 20.3431 23.418 19.7702V18.7285C23.418 19.3014 22.0117 19.7702 20.293 19.7702Z"
    fill="#FFA000" />
  <path
    d="M20.293 21.3327C18.5742 21.3327 17.168 20.8639 17.168 20.291V21.3327C17.168 21.9056 18.5742 22.3743 20.293 22.3743C22.0117 22.3743 23.418 21.9056 23.418 21.3327V20.291C23.418 20.8639 22.0117 21.3327 20.293 21.3327Z"
    fill="#FFA000" />
  <path
    d="M20.293 5.70833C22.0189 5.70833 23.418 5.24196 23.418 4.66667C23.418 4.09137 22.0189 3.625 20.293 3.625C18.5671 3.625 17.168 4.09137 17.168 4.66667C17.168 5.24196 18.5671 5.70833 20.293 5.70833Z"
    fill="#FFC107" />
  <path
    d="M20.293 6.75C18.8346 6.75 17.6367 6.4375 17.2721 5.96875C17.2201 6.07292 17.168 6.125 17.168 6.22917C17.168 6.80208 18.5742 7.27083 20.293 7.27083C22.0117 7.27083 23.418 6.80208 23.418 6.22917C23.418 6.125 23.3659 6.07292 23.3138 5.96875C22.9492 6.4375 21.7513 6.75 20.293 6.75ZM20.293 8.3125C18.8346 8.3125 17.6367 8 17.2721 7.53125C17.2201 7.63542 17.168 7.6875 17.168 7.79167C17.168 8.36458 18.5742 8.83333 20.293 8.83333C22.0117 8.83333 23.418 8.36458 23.418 7.79167C23.418 7.6875 23.3659 7.63542 23.3138 7.53125C22.9492 8 21.7513 8.3125 20.293 8.3125ZM20.293 9.875C18.8346 9.875 17.6367 9.5625 17.2721 9.09375C17.2201 9.19792 17.168 9.25 17.168 9.35417C17.168 9.92708 18.5742 10.3958 20.293 10.3958C22.0117 10.3958 23.418 9.92708 23.418 9.35417C23.418 9.25 23.3659 9.19792 23.3138 9.09375C22.9492 9.5625 21.7513 9.875 20.293 9.875ZM20.293 11.4375C18.8346 11.4375 17.6367 11.125 17.2721 10.6562C17.2201 10.7604 17.168 10.8125 17.168 10.9167C17.168 11.4896 18.5742 11.9583 20.293 11.9583C22.0117 11.9583 23.418 11.4896 23.418 10.9167C23.418 10.8125 23.3659 10.7604 23.3138 10.6562C22.9492 11.125 21.7513 11.4375 20.293 11.4375ZM20.293 13C18.8346 13 17.6367 12.6875 17.2721 12.2188C17.2201 12.3229 17.168 12.375 17.168 12.4792C17.168 13.0521 18.5742 13.5208 20.293 13.5208C22.0117 13.5208 23.418 13.0521 23.418 12.4792C23.418 12.375 23.3659 12.3229 23.3138 12.2188C22.9492 12.6875 21.7513 13 20.293 13ZM20.293 14.5625C18.8346 14.5625 17.6367 14.25 17.2721 13.7812C17.2201 13.8854 17.168 13.9375 17.168 14.0417C17.168 14.6146 18.5742 15.0833 20.293 15.0833C22.0117 15.0833 23.418 14.6146 23.418 14.0417C23.418 13.9375 23.3659 13.8854 23.3138 13.7812C22.9492 14.25 21.7513 14.5625 20.293 14.5625ZM20.293 16.125C18.8346 16.125 17.6367 15.8125 17.2721 15.3438C17.2201 15.4479 17.168 15.5 17.168 15.6042C17.168 16.1771 18.5742 16.6458 20.293 16.6458C22.0117 16.6458 23.418 16.1771 23.418 15.6042C23.418 15.5 23.3659 15.4479 23.3138 15.3438C22.9492 15.8125 21.7513 16.125 20.293 16.125ZM20.293 17.6875C18.8346 17.6875 17.6367 17.375 17.2721 16.9062C17.2201 17.0104 17.168 17.0625 17.168 17.1667C17.168 17.7396 18.5742 18.2083 20.293 18.2083C22.0117 18.2083 23.418 17.7396 23.418 17.1667C23.418 17.0625 23.3659 17.0104 23.3138 16.9062C22.9492 17.375 21.7513 17.6875 20.293 17.6875ZM20.293 19.25C18.8346 19.25 17.6367 18.9375 17.2721 18.4688C17.2201 18.5729 17.168 18.625 17.168 18.7292C17.168 19.3021 18.5742 19.7708 20.293 19.7708C22.0117 19.7708 23.418 19.3021 23.418 18.7292C23.418 18.625 23.3659 18.5729 23.3138 18.4688C22.9492 18.9375 21.7513 19.25 20.293 19.25ZM20.293 20.8125C18.8346 20.8125 17.6367 20.5 17.2721 20.0312C17.2201 20.1354 17.168 20.1875 17.168 20.2917C17.168 20.8646 18.5742 21.3333 20.293 21.3333C22.0117 21.3333 23.418 20.8646 23.418 20.2917C23.418 20.1875 23.3659 20.1354 23.3138 20.0312C22.9492 20.5 21.7513 20.8125 20.293 20.8125Z"
    fill="#FFC107" />
  <path
    d="M5.70703 10.3952C3.98828 10.3952 2.58203 9.92643 2.58203 9.35352V10.3952C2.58203 10.9681 3.98828 11.4368 5.70703 11.4368C7.42578 11.4368 8.83203 10.9681 8.83203 10.3952V9.35352C8.83203 9.92643 7.42578 10.3952 5.70703 10.3952Z"
    fill="#FFA000" />
  <path
    d="M5.70703 8.83268C3.98828 8.83268 2.58203 8.36393 2.58203 7.79102V8.83268C2.58203 9.4056 3.98828 9.87435 5.70703 9.87435C7.42578 9.87435 8.83203 9.4056 8.83203 8.83268V7.79102C8.83203 8.36393 7.42578 8.83268 5.70703 8.83268ZM5.70703 11.9577C3.98828 11.9577 2.58203 11.4889 2.58203 10.916V11.9577C2.58203 12.5306 3.98828 12.9993 5.70703 12.9993C7.42578 12.9993 8.83203 12.5306 8.83203 11.9577V10.916C8.83203 11.4889 7.42578 11.9577 5.70703 11.9577Z"
    fill="#FFA000" />
  <path
    d="M5.70703 13.5202C3.98828 13.5202 2.58203 13.0514 2.58203 12.4785V13.5202C2.58203 14.0931 3.98828 14.5618 5.70703 14.5618C7.42578 14.5618 8.83203 14.0931 8.83203 13.5202V12.4785C8.83203 13.0514 7.42578 13.5202 5.70703 13.5202Z"
    fill="#FFA000" />
  <path
    d="M5.70703 15.0827C3.98828 15.0827 2.58203 14.6139 2.58203 14.041V15.0827C2.58203 15.6556 3.98828 16.1243 5.70703 16.1243C7.42578 16.1243 8.83203 15.6556 8.83203 15.0827V14.041C8.83203 14.6139 7.42578 15.0827 5.70703 15.0827Z"
    fill="#FFA000" />
  <path
    d="M5.70703 16.6452C3.98828 16.6452 2.58203 16.1764 2.58203 15.6035V16.6452C2.58203 17.2181 3.98828 17.6868 5.70703 17.6868C7.42578 17.6868 8.83203 17.2181 8.83203 16.6452V15.6035C8.83203 16.1764 7.42578 16.6452 5.70703 16.6452Z"
    fill="#FFA000" />
  <path
    d="M5.70703 18.2077C3.98828 18.2077 2.58203 17.7389 2.58203 17.166V18.2077C2.58203 18.7806 3.98828 19.2493 5.70703 19.2493C7.42578 19.2493 8.83203 18.7806 8.83203 18.2077V17.166C8.83203 17.7389 7.42578 18.2077 5.70703 18.2077Z"
    fill="#FFA000" />
  <path
    d="M5.70703 19.7702C3.98828 19.7702 2.58203 19.3014 2.58203 18.7285V19.7702C2.58203 20.3431 3.98828 20.8118 5.70703 20.8118C7.42578 20.8118 8.83203 20.3431 8.83203 19.7702V18.7285C8.83203 19.3014 7.42578 19.7702 5.70703 19.7702Z"
    fill="#FFA000" />
  <path
    d="M5.70703 21.3327C3.98828 21.3327 2.58203 20.8639 2.58203 20.291V21.3327C2.58203 21.9056 3.98828 22.3743 5.70703 22.3743C7.42578 22.3743 8.83203 21.9056 8.83203 21.3327V20.291C8.83203 20.8639 7.42578 21.3327 5.70703 21.3327Z"
    fill="#FFA000" />
  <path
    d="M5.70703 8.83333C7.43292 8.83333 8.83203 8.36696 8.83203 7.79167C8.83203 7.21637 7.43292 6.75 5.70703 6.75C3.98114 6.75 2.58203 7.21637 2.58203 7.79167C2.58203 8.36696 3.98114 8.83333 5.70703 8.83333Z"
    fill="#FFC107" />
  <path
    d="M5.70703 9.875C4.2487 9.875 3.05078 9.5625 2.6862 9.09375C2.63411 9.19792 2.58203 9.25 2.58203 9.35417C2.58203 9.92708 3.98828 10.3958 5.70703 10.3958C7.42578 10.3958 8.83203 9.92708 8.83203 9.35417C8.83203 9.25 8.77995 9.19792 8.72786 9.09375C8.36328 9.5625 7.16536 9.875 5.70703 9.875ZM5.70703 11.4375C4.2487 11.4375 3.05078 11.125 2.6862 10.6562C2.63411 10.7604 2.58203 10.8125 2.58203 10.9167C2.58203 11.4896 3.98828 11.9583 5.70703 11.9583C7.42578 11.9583 8.83203 11.4896 8.83203 10.9167C8.83203 10.8125 8.77995 10.7604 8.72786 10.6562C8.36328 11.125 7.16536 11.4375 5.70703 11.4375ZM5.70703 13C4.2487 13 3.05078 12.6875 2.6862 12.2188C2.63411 12.3229 2.58203 12.375 2.58203 12.4792C2.58203 13.0521 3.98828 13.5208 5.70703 13.5208C7.42578 13.5208 8.83203 13.0521 8.83203 12.4792C8.83203 12.375 8.77995 12.3229 8.72786 12.2188C8.36328 12.6875 7.16536 13 5.70703 13ZM5.70703 14.5625C4.2487 14.5625 3.05078 14.25 2.6862 13.7812C2.63411 13.8854 2.58203 13.9375 2.58203 14.0417C2.58203 14.6146 3.98828 15.0833 5.70703 15.0833C7.42578 15.0833 8.83203 14.6146 8.83203 14.0417C8.83203 13.9375 8.77995 13.8854 8.72786 13.7812C8.36328 14.25 7.16536 14.5625 5.70703 14.5625ZM5.70703 16.125C4.2487 16.125 3.05078 15.8125 2.6862 15.3438C2.63411 15.4479 2.58203 15.5 2.58203 15.6042C2.58203 16.1771 3.98828 16.6458 5.70703 16.6458C7.42578 16.6458 8.83203 16.1771 8.83203 15.6042C8.83203 15.5 8.77995 15.4479 8.72786 15.3438C8.36328 15.8125 7.16536 16.125 5.70703 16.125ZM5.70703 17.6875C4.2487 17.6875 3.05078 17.375 2.6862 16.9062C2.63411 17.0104 2.58203 17.0625 2.58203 17.1667C2.58203 17.7396 3.98828 18.2083 5.70703 18.2083C7.42578 18.2083 8.83203 17.7396 8.83203 17.1667C8.83203 17.0625 8.77995 17.0104 8.72786 16.9062C8.36328 17.375 7.16536 17.6875 5.70703 17.6875ZM5.70703 19.25C4.2487 19.25 3.05078 18.9375 2.6862 18.4688C2.63411 18.5729 2.58203 18.625 2.58203 18.7292C2.58203 19.3021 3.98828 19.7708 5.70703 19.7708C7.42578 19.7708 8.83203 19.3021 8.83203 18.7292C8.83203 18.625 8.77995 18.5729 8.72786 18.4688C8.36328 18.9375 7.16536 19.25 5.70703 19.25ZM5.70703 20.8125C4.2487 20.8125 3.05078 20.5 2.6862 20.0312C2.63411 20.1354 2.58203 20.1875 2.58203 20.2917C2.58203 20.8646 3.98828 21.3333 5.70703 21.3333C7.42578 21.3333 8.83203 20.8646 8.83203 20.2917C8.83203 20.1875 8.77995 20.1354 8.72786 20.0312C8.36328 20.5 7.16536 20.8125 5.70703 20.8125Z"
    fill="#FFC107" />
  <path
    d="M13 15.0827C11.2812 15.0827 9.875 14.6139 9.875 14.041V15.0827C9.875 15.6556 11.2812 16.1243 13 16.1243C14.7188 16.1243 16.125 15.6556 16.125 15.0827V14.041C16.125 14.6139 14.7188 15.0827 13 15.0827Z"
    fill="#FFA000" />
  <path
    d="M13 13.5202C11.2812 13.5202 9.875 13.0514 9.875 12.4785V13.5202C9.875 14.0931 11.2812 14.5618 13 14.5618C14.7188 14.5618 16.125 14.0931 16.125 13.5202V12.4785C16.125 13.0514 14.7188 13.5202 13 13.5202ZM13 16.6452C11.2812 16.6452 9.875 16.1764 9.875 15.6035V16.6452C9.875 17.2181 11.2812 17.6868 13 17.6868C14.7188 17.6868 16.125 17.2181 16.125 16.6452V15.6035C16.125 16.1764 14.7188 16.6452 13 16.6452Z"
    fill="#FFA000" />
  <path
    d="M13 18.2077C11.2812 18.2077 9.875 17.7389 9.875 17.166V18.2077C9.875 18.7806 11.2812 19.2493 13 19.2493C14.7188 19.2493 16.125 18.7806 16.125 18.2077V17.166C16.125 17.7389 14.7188 18.2077 13 18.2077Z"
    fill="#FFA000" />
  <path
    d="M13 19.7702C11.2812 19.7702 9.875 19.3014 9.875 18.7285V19.7702C9.875 20.3431 11.2812 20.8118 13 20.8118C14.7188 20.8118 16.125 20.3431 16.125 19.7702V18.7285C16.125 19.3014 14.7188 19.7702 13 19.7702Z"
    fill="#FFA000" />
  <path
    d="M13 21.3327C11.2812 21.3327 9.875 20.8639 9.875 20.291V21.3327C9.875 21.9056 11.2812 22.3743 13 22.3743C14.7188 22.3743 16.125 21.9056 16.125 21.3327V20.291C16.125 20.8639 14.7188 21.3327 13 21.3327Z"
    fill="#FFA000" />
  <path
    d="M13 13.5208C14.7259 13.5208 16.125 13.0545 16.125 12.4792C16.125 11.9039 14.7259 11.4375 13 11.4375C11.2741 11.4375 9.875 11.9039 9.875 12.4792C9.875 13.0545 11.2741 13.5208 13 13.5208Z"
    fill="#FFC107" />
  <path
    d="M13 14.5625C11.5417 14.5625 10.3438 14.25 9.97917 13.7812C9.92708 13.8854 9.875 13.9375 9.875 14.0417C9.875 14.6146 11.2812 15.0833 13 15.0833C14.7188 15.0833 16.125 14.6146 16.125 14.0417C16.125 13.9375 16.0729 13.8854 16.0208 13.7812C15.6562 14.25 14.4583 14.5625 13 14.5625ZM13 16.125C11.5417 16.125 10.3438 15.8125 9.97917 15.3438C9.92708 15.4479 9.875 15.5 9.875 15.6042C9.875 16.1771 11.2812 16.6458 13 16.6458C14.7188 16.6458 16.125 16.1771 16.125 15.6042C16.125 15.5 16.0729 15.4479 16.0208 15.3438C15.6562 15.8125 14.4583 16.125 13 16.125ZM13 17.6875C11.5417 17.6875 10.3438 17.375 9.97917 16.9063C9.92708 17.0104 9.875 17.0625 9.875 17.1667C9.875 17.7396 11.2812 18.2083 13 18.2083C14.7188 18.2083 16.125 17.7396 16.125 17.1667C16.125 17.0625 16.0729 17.0104 16.0208 16.9063C15.6562 17.375 14.4583 17.6875 13 17.6875ZM13 19.25C11.5417 19.25 10.3438 18.9375 9.97917 18.4688C9.92708 18.5729 9.875 18.625 9.875 18.7292C9.875 19.3021 11.2812 19.7708 13 19.7708C14.7188 19.7708 16.125 19.3021 16.125 18.7292C16.125 18.625 16.0729 18.5729 16.0208 18.4688C15.6562 18.9375 14.4583 19.25 13 19.25ZM13 20.8125C11.5417 20.8125 10.3438 20.5 9.97917 20.0313C9.92708 20.1354 9.875 20.1875 9.875 20.2917C9.875 20.8646 11.2812 21.3333 13 21.3333C14.7188 21.3333 16.125 20.8646 16.125 20.2917C16.125 20.1875 16.0729 20.1354 16.0208 20.0313C15.6562 20.5 14.4583 20.8125 13 20.8125Z"
    fill="#FFC107" />
</svg>