<svg width="20" height="20" viewBox="0 0 20 20" fill="none" xmlns="http://www.w3.org/2000/svg">
  <path
    d="M10 19.9969C15.5228 19.9969 20 15.5205 20 9.99846C20 4.47646 15.5228 0 10 0C4.47715 0 0 4.47646 0 9.99846C0 15.5205 4.47715 19.9969 10 19.9969Z"
    fill="#3B5998" />
  <path fill-rule="evenodd" clip-rule="evenodd"
    d="M12.6912 6.72916C12.3742 6.66382 11.9459 6.61504 11.6767 6.61504C10.9474 6.61504 10.9 6.94165 10.9 7.46428V8.3946H12.723L12.5641 10.3217H10.9V16.1833H8.61748V10.3217H7.44434V8.3946H8.61748V7.2026C8.61748 5.56981 9.36242 4.65527 11.2327 4.65527C11.8826 4.65527 12.3582 4.75326 12.9763 4.8839L12.6912 6.72916Z"
    fill="white" />
</svg>