<svg width="30" height="23" viewBox="0 0 30 23" fill="none" xmlns="http://www.w3.org/2000/svg">
  <path d="M30 5.8584L26.4287 7.82262L22.8574 11.2154V22.8578H27.8572C29.0408 22.8578 30 21.8986 30 20.715V5.8584Z"
    fill="#4CAF50" />
  <path d="M0 5.8584L2.58134 7.07978L7.14261 11.2154V22.8578H2.14278C0.959253 22.8578 0 21.8986 0 20.715V5.8584Z"
    fill="#1E88E5" />
  <path
    d="M22.8538 2.28516L14.9969 8.17781L7.14004 2.28516L6.42578 6.42787L7.14004 11.2134L14.9969 17.1061L22.8538 11.2134L23.568 6.42787L22.8538 2.28516Z"
    fill="#E53935" />
  <path
    d="M0 3.06989V5.85694L7.14261 11.2139V2.28564L4.91126 0.61355C4.37985 0.214993 3.73416 0 3.06989 0C1.37424 0 0 1.37424 0 3.06989Z"
    fill="#C62828" />
  <path
    d="M30 3.06989V5.85694L22.8574 11.2139V2.28564L25.0888 0.61355C25.6202 0.214993 26.2659 0 26.9301 0C28.6258 0 30 1.37424 30 3.06989Z"
    fill="#FBC02D" />
</svg>