<svg width="18" height="19" viewBox="0 0 18 19" fill="none" xmlns="http://www.w3.org/2000/svg">
  <path
    d="M18.0003 9.38835C18.0003 8.63323 17.939 8.08219 17.8064 7.51074H9.18359V10.919H14.245C14.143 11.766 13.5919 13.0416 12.3674 13.8987L12.3502 14.0128L15.0766 16.1249L15.2655 16.1437C17.0002 14.5416 18.0003 12.1844 18.0003 9.38835Z"
    fill="#4285F4" />
  <path
    d="M9.18589 18.3696C11.6655 18.3696 13.7472 17.5532 15.2678 16.145L12.3697 13.9C11.5941 14.4408 10.5533 14.8184 9.18589 14.8184C6.75723 14.8184 4.69594 13.2163 3.96114 11.002L3.85344 11.0111L1.01852 13.2051L0.981445 13.3081C2.4917 16.3082 5.59387 18.3696 9.18589 18.3696Z"
    fill="#34A853" />
  <path
    d="M3.95931 10.9994C3.76542 10.4279 3.65322 9.8156 3.65322 9.18295C3.65322 8.55023 3.76542 7.93799 3.94911 7.36654L3.94397 7.24484L1.07352 5.01562L0.979608 5.0603C0.357161 6.30526 0 7.7033 0 9.18295C0 10.6626 0.357161 12.0606 0.979608 13.3055L3.95931 10.9994Z"
    fill="#FBBC05" />
  <path
    d="M9.18589 3.55114C10.9104 3.55114 12.0737 4.29607 12.737 4.91858L15.329 2.38785C13.7371 0.908204 11.6655 0 9.18589 0C5.59387 0 2.4917 2.06129 0.981445 5.06139L3.95094 7.36764C4.69594 5.15327 6.75723 3.55114 9.18589 3.55114Z"
    fill="#EB4335" />
</svg>