<svg width="50" height="47" viewBox="0 0 50 47" fill="none" xmlns="http://www.w3.org/2000/svg">
  <path
    d="M40.907 38.6344H4.54522C2.04535 38.6344 5.32643e-08 36.5891 0 34.0892V4.54522C0 2.04535 2.04535 5.32643e-08 4.54522 0H40.907C43.4069 0 45.4522 2.04535 45.4522 4.54522V34.0892C45.4522 36.5891 43.4069 38.6344 40.907 38.6344Z"
    fill="#8CBCD6" />
  <path
    d="M31.8203 10.2273C31.8203 11.1315 32.1795 11.9985 32.8188 12.6379C33.4581 13.2772 34.3252 13.6363 35.2293 13.6363C36.1334 13.6363 37.0005 13.2772 37.6398 12.6379C38.2791 11.9985 38.6383 11.1315 38.6383 10.2273C38.6383 9.32322 38.2791 8.45613 37.6398 7.81683C37.0005 7.17752 36.1334 6.81836 35.2293 6.81836C34.3252 6.81836 33.4581 7.17752 32.8188 7.81683C32.1795 8.45613 31.8203 9.32322 31.8203 10.2273Z"
    fill="#B3DDF5" />
  <path d="M18.1793 10.2275L5.67969 28.4088H30.6789L18.1793 10.2275Z" fill="#9AC9E3" />
  <path d="M30.6844 17.0439L21.5938 28.4072H39.775L30.6844 17.0439Z" fill="#B3DDF5" />
  <path
    d="M27.2734 35.2256C27.2734 38.2393 28.4706 41.1296 30.6017 43.2606C32.7327 45.3917 35.623 46.5889 38.6367 46.5889C41.6504 46.5889 44.5407 45.3917 46.6718 43.2606C48.8028 41.1296 50 38.2393 50 35.2256C50 32.2119 48.8028 29.3216 46.6718 27.1905C44.5407 25.0595 41.6504 23.8623 38.6367 23.8623C35.623 23.8623 32.7327 25.0595 30.6017 27.1905C28.4706 29.3216 27.2734 32.2119 27.2734 35.2256Z"
    fill="#43A047" />
  <path d="M36.3594 28.4092H40.9047V42.0451H36.3594V28.4092Z" fill="white" />
  <path d="M31.8203 32.9541H45.4562V37.4994H31.8203V32.9541Z" fill="white" />
</svg>