<svg width="30" height="30" viewBox="0 0 30 30" fill="none" xmlns="http://www.w3.org/2000/svg">
  <path
    d="M25.5 9C27.9853 9 30 6.98527 30 4.5C30 2.01472 27.9853 0 25.5 0C23.0146 0 21 2.01472 21 4.5C21 6.98527 23.0146 9 25.5 9Z"
    fill="#1E1E1E" />
  <path opacity="0.4"
    d="M25.5 11.25C21.78 11.25 18.75 8.22 18.75 4.5C18.75 3.42 19.035 2.415 19.485 1.5H8.27999C3.105 1.5 0 4.59 0 9.78V21.705C0 26.91 3.105 30 8.27999 30H20.205C25.395 30 28.485 26.91 28.485 21.72V10.515C27.585 10.965 26.58 11.25 25.5 11.25Z"
    fill="#0E2254" />
</svg>