<svg width="150" height="95" viewBox="0 0 150 95" fill="none" xmlns="http://www.w3.org/2000/svg">
  <g opacity="0.5">
    <path
      d="M21.2555 9C19.7412 9 18.5163 10.2188 18.5163 11.727V28.0686C18.5163 30.2779 16.8715 32.1204 14.7376 32.4302V12.6462C14.7376 11.1482 13.5107 9.91919 11.9964 9.91919C10.48 9.91919 9.25509 11.1482 9.25509 12.6462V32.4302C7.12934 32.1204 5.47642 30.2779 5.47642 28.0686V11.727C5.47642 10.2188 4.25151 9 2.73923 9C1.23102 9 0 10.2188 0 11.727V28.0686C0 33.2923 4.10069 37.5846 9.25917 37.9229V82.25C9.25917 83.7663 10.4841 84.9851 12.0004 84.9851C13.5148 84.9851 14.7417 83.7663 14.7417 82.25V37.9229C19.9022 37.5846 24.0009 33.2903 24.0009 28.0686V11.727C23.9988 10.2188 22.776 9 21.2555 9Z"
      fill="#7E88A1" />
    <path
      d="M138.459 9C133.712 9 134.069 18.516 134.069 30.2494C134.069 37.9963 133.914 44.773 135.173 48.4865V82.3213C135.173 83.8376 136.398 85.0564 137.912 85.0564C139.431 85.0564 140.656 83.8376 140.656 82.3213V50.9078C145.054 48.6658 149.999 40.2708 149.999 30.2494C149.996 18.516 143.212 9 138.459 9Z"
      fill="#7E88A1" />
    <path
      d="M77.7837 0C51.5042 0 30.1875 21.2351 30.1875 47.4311C30.1875 73.627 51.5042 94.8601 77.7837 94.8601C104.077 94.8601 125.392 73.627 125.392 47.4311C125.392 21.2351 104.077 0 77.7837 0Z"
      fill="#7E88A1" />
    <ellipse cx="77.9008" cy="47.5961" rx="37.7837" ry="37.5961" fill="#EDEDED" />
  </g>
</svg>