<svg width="30" height="30" viewBox="0 0 30 30" fill="none" xmlns="http://www.w3.org/2000/svg">
  <path fill-rule="evenodd" clip-rule="evenodd"
    d="M1.57729 0.0673599C0.960293 -0.149569 0.284273 0.174759 0.0673599 0.791742C-0.149569 1.40874 0.174759 2.08476 0.791742 2.30167L1.20417 2.44668C2.25828 2.81729 2.95104 3.06289 3.4608 3.31301C3.93956 3.54792 4.15062 3.73808 4.28966 3.94154C4.43217 4.1501 4.54222 4.43655 4.60432 5.01025C4.66931 5.61058 4.67092 6.39248 4.67092 7.56081V11.6687H29.4984C30.0202 9.05153 30.2651 7.72202 29.5808 6.83254C28.8799 5.92137 26.485 5.92137 23.8246 5.92137H7.02754C7.01698 5.49454 6.99696 5.10622 6.95897 4.75538C6.87413 3.97163 6.69033 3.25682 6.2451 2.60529C5.7964 1.94867 5.1998 1.52814 4.50408 1.18677C3.85342 0.867515 3.02664 0.576865 2.05318 0.234664L1.57729 0.0673599Z"
    fill="#0E2254" />
  <path opacity="0.5"
    d="M28.6715 15.6903L29.4606 11.8618L29.4993 11.668H4.67188C4.67188 16.3126 4.77173 17.8452 6.13971 19.2882C7.5077 20.731 9.70944 20.731 14.1129 20.731H22.4859C24.9506 20.731 26.1829 20.731 27.054 20.0212C27.9253 19.3113 28.174 18.1042 28.6715 15.6903Z"
    fill="#0E2254" />
  <path
    d="M8.6184 24.8691C9.92643 24.8691 10.9868 25.9296 10.9868 27.2375C10.9868 28.5455 9.92643 29.6059 8.6184 29.6059C7.31036 29.6059 6.25 28.5455 6.25 27.2375C6.25 25.9296 7.31036 24.8691 8.6184 24.8691Z"
    fill="#0E2254" />
  <path
    d="M22.8293 24.8691C24.1373 24.8691 25.1977 25.9294 25.1977 27.2375C25.1977 28.5455 24.1373 29.6059 22.8293 29.6059C21.5213 29.6059 20.4609 28.5455 20.4609 27.2375C20.4609 25.9294 21.5213 24.8691 22.8293 24.8691Z"
    fill="#0E2254" />
</svg>