<svg width="36" height="36" viewBox="0 0 36 36" fill="none" xmlns="http://www.w3.org/2000/svg">
  <path opacity="0.4"
    d="M18 36C27.941 36 36 27.9412 36 18C36 8.05887 27.941 0 18 0C8.05887 0 0 8.05887 0 18C0 27.9412 8.05887 36 18 36Z"
    fill="#0E2254" />
  <path
    d="M18 8.87305C14.274 8.87305 11.25 11.897 11.25 15.623C11.25 19.277 14.112 22.247 17.91 22.355C17.964 22.355 18.036 22.355 18.072 22.355C18.108 22.355 18.162 22.355 18.198 22.355C18.216 22.355 18.234 22.355 18.234 22.355C21.87 22.229 24.732 19.277 24.75 15.623C24.75 11.897 21.726 8.87305 18 8.87305Z"
    fill="#0E2254" />
  <path
    d="M30.2049 31.2293C27.0009 34.1813 22.7169 35.9993 18.0009 35.9993C13.2849 35.9993 9.00088 34.1813 5.79688 31.2293C6.22888 29.5913 7.39888 28.0973 9.10888 26.9453C14.0229 23.6693 22.0149 23.6693 26.8929 26.9453C28.6209 28.0973 29.7729 29.5913 30.2049 31.2293Z"
    fill="#0E2254" />
</svg>